<svg width="16" height="16" viewBox="0 0 16 16" fill="none" xmlns="http://www.w3.org/2000/svg">
<path d="M4.57471 4.05C4.57471 3.77152 4.68533 3.50445 4.88224 3.30754C5.07916 3.11062 5.34623 3 5.62471 3H10.8747C11.1532 3 11.4203 3.11062 11.6172 3.30754C11.8141 3.50445 11.9247 3.77152 11.9247 4.05V6.675C11.9247 7.64967 11.5375 8.58442 10.8483 9.27362C10.1591 9.96281 9.22438 10.35 8.24971 10.35V10.35C7.27504 10.35 6.34029 9.96281 5.65109 9.27362C4.96189 8.58442 4.57471 7.64967 4.57471 6.675V4.05ZM6.67471 13.5H9.82471L8.24971 10.875L6.67471 13.5Z" stroke="white" stroke-linecap="round" stroke-linejoin="round"/>
<path d="M4.575 4.05005H4.05C3.77152 4.05005 3.50445 4.16067 3.30754 4.35759C3.11062 4.5545 3 4.82157 3 5.10005V5.75052C2.99999 6.13219 3.104 6.50664 3.30084 6.83363C3.49768 7.16062 3.77991 7.42778 4.1172 7.6064L4.8375 7.98755M11.925 4.05005H12.45C12.7285 4.05005 12.9955 4.16067 13.1925 4.35759C13.3894 4.5545 13.5 4.82157 13.5 5.10005V5.43447C13.5 5.91158 13.37 6.37967 13.124 6.78843C12.8779 7.19719 12.5251 7.53116 12.1035 7.75445L11.6625 7.98755" stroke="white" stroke-linejoin="round"/>
</svg>
