<svg width="16" height="16" viewBox="0 0 16 16" fill="none" xmlns="http://www.w3.org/2000/svg">
<path d="M14.3428 6.53516H10.5928C10.5283 6.53516 10.4756 6.58789 10.4756 6.65234V7.35547C10.4756 7.41992 10.5283 7.47266 10.5928 7.47266H14.3428C14.4072 7.47266 14.46 7.41992 14.46 7.35547V6.65234C14.46 6.58789 14.4072 6.53516 14.3428 6.53516ZM12.3799 8.52734H10.5928C10.5283 8.52734 10.4756 8.58008 10.4756 8.64453V9.34766C10.4756 9.41211 10.5283 9.46484 10.5928 9.46484H12.3799C12.4443 9.46484 12.4971 9.41211 12.4971 9.34766V8.64453C12.4971 8.58008 12.4443 8.52734 12.3799 8.52734ZM7.4917 5.22412H6.85742C6.7666 5.22412 6.69336 5.29736 6.69336 5.38818V9.021C6.69336 9.07373 6.71826 9.12207 6.76074 9.15283L8.94189 10.7437C9.01514 10.7964 9.11768 10.7817 9.17041 10.7085L9.54687 10.1943V10.1929C9.59961 10.1196 9.5835 10.0171 9.51025 9.96436L7.6543 8.62256V5.38818C7.65576 5.29736 7.58105 5.22412 7.4917 5.22412Z" fill="white"/>
<path d="M12.2891 10.3715H11.4424C11.3604 10.3715 11.2827 10.414 11.2388 10.4843C11.0527 10.7788 10.8359 11.0512 10.5869 11.3003C10.1577 11.7295 9.65821 12.0664 9.10304 12.3007C8.52735 12.5439 7.91651 12.667 7.28663 12.667C6.65528 12.667 6.04444 12.5439 5.47022 12.3007C4.91505 12.0664 4.41554 11.7295 3.98634 11.3003C3.55714 10.8711 3.22022 10.3715 2.98585 9.81636C2.74269 9.24215 2.61964 8.63131 2.61964 7.99996C2.61964 7.36861 2.74269 6.75924 2.98585 6.18355C3.22022 5.62838 3.55714 5.12887 3.98634 4.69967C4.41554 4.27047 4.91505 3.93355 5.47022 3.69918C6.04444 3.45601 6.65675 3.33297 7.28663 3.33297C7.91798 3.33297 8.52882 3.45601 9.10304 3.69918C9.65821 3.93355 10.1577 4.27047 10.5869 4.69967C10.8359 4.94869 11.0527 5.22115 11.2388 5.51558C11.2827 5.5859 11.3604 5.62838 11.4424 5.62838H12.2891C12.3901 5.62838 12.4546 5.52291 12.4092 5.43355C11.4541 3.53365 9.51759 2.29879 7.35548 2.27388C4.18995 2.23433 1.56056 4.82564 1.5547 7.98824C1.54884 11.1567 4.11671 13.7275 7.28517 13.7275C9.47511 13.7275 11.4439 12.4882 12.4092 10.5664C12.4546 10.477 12.3887 10.3715 12.2891 10.3715Z" fill="white"/>
</svg>
