<svg width="52" height="53" viewBox="0 0 52 53" fill="none" xmlns="http://www.w3.org/2000/svg">
<rect width="52" height="53" rx="3" fill="white"/>
<path d="M31.977 27.1018C31.9668 25.3701 32.7514 24.065 34.3357 23.1027C33.4496 21.8332 32.109 21.135 30.3418 21.0004C28.6686 20.8684 26.8379 21.9754 26.1676 21.9754C25.4592 21.9754 23.8393 21.0461 22.5646 21.0461C19.9342 21.0867 17.1387 23.1434 17.1387 27.3277C17.1387 28.5643 17.3646 29.8414 17.8166 31.1566C18.4209 32.8883 20.5994 37.1311 22.8719 37.0625C24.0602 37.0346 24.9006 36.2195 26.4469 36.2195C27.9475 36.2195 28.7244 37.0625 30.0498 37.0625C32.3426 37.0295 34.3129 33.1727 34.8867 31.4359C31.8119 29.9861 31.977 27.1906 31.977 27.1018V27.1018ZM29.3084 19.3576C30.5957 17.8291 30.4789 16.4377 30.4408 15.9375C29.3033 16.0035 27.9881 16.7119 27.2391 17.5828C26.4139 18.5172 25.9289 19.6725 26.033 20.975C27.2619 21.0689 28.3842 20.4367 29.3084 19.3576V19.3576Z" fill="black"/>
</svg>
