<svg width="52" height="53" viewBox="0 0 52 53" fill="none" xmlns="http://www.w3.org/2000/svg">
<rect width="52" height="53" rx="3" fill="#3261A3"/>
<g clip-path="url(#clip0_5102_1834)">
<path d="M39 26.5C39 19.3183 33.1768 13.5 26 13.5C18.8183 13.5 13 19.3183 13 26.5C13 32.987 17.7523 38.3657 23.9688 39.3399V30.2586H20.6676V26.5008H23.9688V23.6351C23.9688 20.3778 25.9066 18.5789 28.8771 18.5789C30.2998 18.5789 31.7891 18.8324 31.7891 18.8324V22.0312H30.147C28.535 22.0312 28.0312 23.0347 28.0312 24.0625V26.5H31.6363L31.057 30.2578H28.0312V39.3391C34.2428 38.3649 39 32.9862 39 26.4992V26.5Z" fill="white"/>
</g>
<defs>
<clipPath id="clip0_5102_1834">
<rect width="26" height="26" fill="white" transform="translate(13 13.5)"/>
</clipPath>
</defs>
</svg>
