<svg width="52" height="53" viewBox="0 0 52 53" fill="none" xmlns="http://www.w3.org/2000/svg">
<rect width="52" height="53" rx="3" fill="white"/>
<path d="M36.6226 24.3783H35.75V24.3333H26V28.6667H32.1224C31.2292 31.1892 28.8291 33 26 33C22.4103 33 19.5 30.0896 19.5 26.5C19.5 22.9104 22.4103 20 26 20C27.6569 20 29.1644 20.6251 30.3122 21.6461L33.3764 18.5819C31.4415 16.7787 28.8535 15.6667 26 15.6667C20.0173 15.6667 15.1666 20.5173 15.1666 26.5C15.1666 32.4827 20.0173 37.3333 26 37.3333C31.9827 37.3333 36.8333 32.4827 36.8333 26.5C36.8333 25.7736 36.7585 25.0646 36.6226 24.3783Z" fill="#FFC107"/>
<path d="M16.4158 21.4576L19.9751 24.0679C20.9381 21.6835 23.2706 20 26 20C27.657 20 29.1644 20.6251 30.3122 21.6461L33.3764 18.5819C31.4416 16.7787 28.8535 15.6667 26 15.6667C21.8389 15.6667 18.2304 18.0159 16.4158 21.4576Z" fill="#FF3D00"/>
<path d="M26 37.3333C28.7982 37.3333 31.3408 36.2625 33.2632 34.521L29.9103 31.6838C28.7861 32.5387 27.4123 33.0011 26 33C23.1822 33 20.7897 31.2033 19.8883 28.6959L16.3556 31.4178C18.1485 34.9262 21.7896 37.3333 26 37.3333Z" fill="#4CAF50"/>
<path d="M36.6226 24.3783H35.75V24.3333H26V28.6667H32.1225C31.6952 29.8672 30.9256 30.9163 29.9087 31.6843L29.9103 31.6832L33.2632 34.5205C33.026 34.736 36.8333 31.9167 36.8333 26.5C36.8333 25.7736 36.7586 25.0646 36.6226 24.3783Z" fill="#1976D2"/>
</svg>
