<svg width="52" height="53" viewBox="0 0 52 53" fill="none" xmlns="http://www.w3.org/2000/svg">
<rect width="52" height="53" rx="3" fill="#E90000"/>
<g clip-path="url(#clip0_5102_1843)">
<path d="M28.3571 39.5H32.3391C35.9954 39.5 39 36.4954 39 32.8391V20.1609C39 16.5046 35.9954 13.5 32.3391 13.5H28.2766C28.1962 13.5 28.1117 13.5804 28.1117 13.6609V39.3391C28.1117 39.4196 28.1921 39.5 28.3571 39.5ZM33.3125 25.2008C34.7766 25.2008 35.9109 26.4196 35.9109 27.7992C35.9109 29.2633 34.6921 30.3976 33.3125 30.3976C31.8484 30.3976 30.7141 29.2633 30.7141 27.7992C30.6296 26.3391 31.8484 25.2008 33.3125 25.2008ZM25.3484 13.5H19.6609C16.0046 13.5 13 16.5046 13 20.1609V32.8391C13 36.4954 16.0046 39.5 19.6609 39.5H25.3484C25.4288 39.5 25.5133 39.4196 25.5133 39.3391V13.6609C25.5133 13.5804 25.4329 13.5 25.3484 13.5ZM23.4821 37.3883H19.6609C19.0632 37.3893 18.4712 37.2723 17.9188 37.044C17.3665 36.8157 16.8646 36.4807 16.442 36.058C16.0193 35.6354 15.6843 35.1335 15.456 34.5812C15.2277 34.0288 15.1107 33.4368 15.1117 32.8391V20.1609C15.1107 19.5632 15.2277 18.9712 15.456 18.4188C15.6843 17.8665 16.0193 17.3646 16.442 16.942C16.8646 16.5193 17.3665 16.1843 17.9188 15.956C18.4712 15.7277 19.0632 15.6107 19.6609 15.6117H23.4016L23.4821 37.3883ZM17.0625 21.2992C17.0625 22.6788 18.1204 23.7367 19.5 23.7367C20.8796 23.7367 21.9375 22.6788 21.9375 21.2992C21.9375 19.9196 20.8796 18.8617 19.5 18.8617C18.1204 18.8617 17.0625 19.9196 17.0625 21.2992Z" fill="white"/>
</g>
<defs>
<clipPath id="clip0_5102_1843">
<rect width="26" height="26" fill="white" transform="translate(13 13.5)"/>
</clipPath>
</defs>
</svg>
