<svg width="52" height="53" viewBox="0 0 52 53" fill="none" xmlns="http://www.w3.org/2000/svg">
<rect width="52" height="53" rx="3" fill="#0063C5"/>
<g clip-path="url(#clip0_5102_1840)">
<path d="M38.7693 32.1079C38.2606 32.7498 37.0159 33.2064 37.0159 33.2064L27.7599 36.5311V34.079L34.5719 31.6529C35.3454 31.3766 35.464 30.9834 34.8351 30.7786C34.2079 30.5723 33.072 30.6324 32.3001 30.9086L27.7599 32.5076V29.9629L28.0215 29.8751C28.0215 29.8751 29.3329 29.4104 31.1773 29.2056C33.0216 29.0025 35.2804 29.2333 37.0533 29.9044C39.052 30.5381 39.2763 31.4676 38.7693 32.1079V32.1079ZM28.6406 27.9349V21.6624C28.6406 20.9262 28.5058 20.2486 27.8151 20.0569C27.2854 19.8862 26.9571 20.3786 26.9571 21.1131V36.8171L22.7224 35.4733V16.75C24.5229 17.0848 27.1456 17.8745 28.5561 18.3506C32.1425 19.5807 33.358 21.1131 33.358 24.5662C33.358 27.9316 31.2813 29.2072 28.6406 27.9332V27.9349ZM14.9516 33.8255C12.9009 33.2438 12.5596 32.0413 13.494 31.349C14.3585 30.7088 15.8275 30.2277 15.8275 30.2277L21.9001 28.0665V30.5284L17.5289 32.0933C16.7586 32.3695 16.64 32.7611 17.2673 32.9675C17.8945 33.1722 19.0304 33.1137 19.8023 32.8375L21.8985 32.0754V34.2789L21.4809 34.3487C19.294 34.7028 17.0539 34.5227 14.9516 33.8239V33.8255Z" fill="white"/>
</g>
<defs>
<clipPath id="clip0_5102_1840">
<rect width="26" height="26" fill="white" transform="translate(13 13.5)"/>
</clipPath>
</defs>
</svg>
