<svg width="52" height="53" viewBox="0 0 52 53" fill="none" xmlns="http://www.w3.org/2000/svg">
<rect width="52" height="53" rx="3" fill="#145C8F"/>
<g clip-path="url(#clip0_5102_1846)">
<path d="M13.5346 30.2911C14.35 32.9568 15.9997 35.2904 18.2408 36.9482C20.482 38.606 23.1961 39.5005 25.9837 39.5C33.1727 39.5 39 33.6793 39 26.5C39 19.3208 33.1728 13.5 25.9854 13.5C22.6854 13.4987 19.5083 14.7515 17.0974 17.0047C14.6864 19.2579 13.2218 22.343 13 25.6355L13.0049 25.6453L19.9989 28.5199C20.6297 28.1023 21.3768 27.8957 22.1325 27.93L25.3175 23.3085L25.3159 23.2435C25.3172 21.9327 25.8383 20.676 26.765 19.7489C27.6918 18.8219 28.9483 18.3003 30.2591 18.2986C31.5699 18.3003 32.8265 18.8219 33.7532 19.7489C34.6799 20.676 35.2011 21.9327 35.2024 23.2435C35.2019 23.9022 35.07 24.5541 34.8144 25.1611C34.5588 25.7682 34.1846 26.3181 33.7138 26.7788C33.2431 27.2394 32.6851 27.6015 32.0726 27.8438C31.4602 28.0861 30.8055 28.2038 30.147 28.19L25.5905 31.44C25.606 32.042 25.4707 32.6383 25.1969 33.1747C24.9232 33.7111 24.5197 34.1706 24.0232 34.5113C23.5266 34.852 22.9528 35.0632 22.3538 35.1256C21.7548 35.1881 21.1498 35.0998 20.5936 34.8688C20.0599 34.6463 19.5875 34.2987 19.2164 33.8552C18.8453 33.4117 18.5864 32.8854 18.4616 32.3208L13.5363 30.2911H13.5346Z" fill="white"/>
<path d="M20.9105 34.1099C21.5876 34.3683 22.3386 34.3529 23.0045 34.0668C23.6703 33.7807 24.1985 33.2466 24.4771 32.5776C24.7557 31.9086 24.7627 31.1574 24.4967 30.4833C24.2307 29.8092 23.7126 29.2653 23.0523 28.9668C22.3976 28.6936 21.663 28.6819 20.9999 28.9343L22.6623 29.6233C22.9109 29.7268 23.1367 29.8782 23.3268 30.069C23.5168 30.2597 23.6675 30.4861 23.7701 30.735C23.8727 30.984 23.9253 31.2508 23.9248 31.52C23.9243 31.7893 23.8708 32.0559 23.7673 32.3045C23.6638 32.5531 23.5123 32.7789 23.3216 32.969C23.1308 33.1591 22.9045 33.3097 22.6555 33.4123C22.4065 33.5149 22.1398 33.5675 21.8705 33.567C21.6012 33.5665 21.3347 33.513 21.086 33.4095L19.4773 32.7433C19.7701 33.3597 20.2806 33.8459 20.9105 34.1083V34.1099ZM26.9653 23.2435C26.9657 24.1173 27.3128 24.9552 27.9303 25.5733C28.5479 26.1914 29.3854 26.5393 30.2592 26.5406C31.1329 26.5393 31.9705 26.1914 32.588 25.5733C33.2055 24.9552 33.5526 24.1173 33.553 23.2435C33.5518 22.3703 33.2043 21.5333 32.5869 20.9158C31.9694 20.2984 31.1324 19.9509 30.2592 19.9496C29.386 19.9509 28.5489 20.2984 27.9315 20.9158C27.314 21.5333 26.9666 22.3703 26.9653 23.2435V23.2435ZM30.264 20.7621C30.5893 20.7623 30.9113 20.8266 31.2116 20.9513C31.512 21.0759 31.7849 21.2585 32.0147 21.4886C32.2445 21.7187 32.4268 21.9919 32.551 22.2924C32.6753 22.593 32.7391 22.915 32.7389 23.2403C32.7387 23.5655 32.6744 23.8875 32.5498 24.1878C32.4251 24.4882 32.2425 24.7611 32.0124 24.9909C31.7823 25.2207 31.5092 25.403 31.2086 25.5272C30.9081 25.6515 30.586 25.7153 30.2608 25.7151C29.604 25.7147 28.9743 25.4534 28.5101 24.9886C28.046 24.5239 27.7855 23.8938 27.7859 23.237C27.7864 22.5802 28.0477 21.9505 28.5124 21.4863C28.9772 21.0222 29.6072 20.7617 30.264 20.7621V20.7621Z" fill="white"/>
</g>
<defs>
<clipPath id="clip0_5102_1846">
<rect width="26" height="26" fill="white" transform="translate(13 13.5)"/>
</clipPath>
</defs>
</svg>
