<svg width="52" height="53" viewBox="0 0 52 53" fill="none" xmlns="http://www.w3.org/2000/svg">
<rect width="52" height="53" rx="3" fill="#027D00"/>
<g clip-path="url(#clip0_5102_1837)">
<path d="M31.784 29.6586C34.0336 32.416 35.0695 34.6758 34.5465 35.6863C34.1453 36.4531 31.6672 37.9512 29.8441 38.525C28.341 38.9973 26.3707 39.2004 24.7457 39.043C22.8059 38.8551 20.8406 38.1594 19.1547 37.0625C17.7379 36.1383 17.418 35.7574 17.418 35.0008C17.418 33.4824 19.0887 30.8215 21.9476 27.7848C23.5726 26.0633 25.8324 24.0422 26.0812 24.098C26.5586 24.2047 30.3621 27.9117 31.784 29.6586V29.6586ZM22.5773 20.8023C21.0691 19.4363 19.6269 18.0652 18.1898 17.5828C17.418 17.3238 17.3621 17.3391 16.7324 17.9941C15.2496 19.5379 14.0156 22.0414 13.6703 24.2098C13.3961 25.9465 13.3605 26.434 13.457 27.282C13.7414 29.8465 14.3355 31.6188 15.5137 33.4215C15.9961 34.1629 16.1281 34.3 15.9859 33.9242C15.7726 33.3656 15.9707 32.0199 16.4684 30.6742C17.1945 28.6938 19.2055 24.941 22.5773 20.8023V20.8023ZM38.4008 24.027C37.5426 19.9645 34.973 17.4102 34.6125 17.4102C34.2418 17.4102 33.3836 17.7402 32.7844 18.116C31.6012 18.8523 30.7023 19.7105 29.5191 20.7973C31.6723 23.5039 34.709 27.8762 35.7602 31.0703C36.1055 32.1215 36.2527 33.1574 36.1359 33.7262C36.0496 34.1578 36.0496 34.1578 36.207 33.9598C36.5168 33.5688 37.2176 32.3703 37.4969 31.7508C37.8726 30.9281 38.2586 29.7094 38.4414 28.7699C38.6598 27.6273 38.6394 25.1746 38.4008 24.027V24.027ZM20.1754 15.6836C22.5976 15.5566 25.7461 17.4355 25.9797 17.4813C26.0152 17.4863 26.5078 17.268 27.0766 16.9887C30.3215 15.4094 31.85 15.6785 32.5305 15.709C29.2855 13.7133 24.7762 13.1699 20.6527 15.1148C19.4644 15.6785 19.434 15.7191 20.1754 15.6836Z" fill="white"/>
</g>
<defs>
<clipPath id="clip0_5102_1837">
<rect width="26" height="26" fill="white" transform="translate(13 13.5)"/>
</clipPath>
</defs>
</svg>
