<svg width="8" height="11" viewBox="0 0 8 11" fill="none" xmlns="http://www.w3.org/2000/svg">
<path d="M0.499512 1.5C0.499512 1.23478 0.604869 0.98043 0.792405 0.792893C0.979941 0.605357 1.2343 0.5 1.49951 0.5H6.49951C6.76473 0.5 7.01908 0.605357 7.20662 0.792893C7.39415 0.98043 7.49951 1.23478 7.49951 1.5V4C7.49951 4.92826 7.13076 5.8185 6.47439 6.47487C5.81801 7.13125 4.92777 7.5 3.99951 7.5V7.5C3.07125 7.5 2.18102 7.13125 1.52464 6.47487C0.868261 5.8185 0.499512 4.92826 0.499512 4V1.5ZM2.49951 10.5H5.49951L3.99951 8L2.49951 10.5Z" stroke="white" stroke-linecap="round" stroke-linejoin="round"/>
</svg>
