<svg width="20" height="20" viewBox="0 0 20 20" fill="none" xmlns="http://www.w3.org/2000/svg">
<path d="M1.91999 19.0789C1.78125 19.0787 1.64408 19.0496 1.5172 18.9934C1.39031 18.9373 1.2765 18.8554 1.18299 18.7529C1.08779 18.6513 1.01514 18.5307 0.969818 18.399C0.924493 18.2674 0.907513 18.1276 0.91999 17.9889L1.16499 15.2949L12.483 3.98091L16.02 7.51691L4.70499 18.8299L2.01099 19.0749C1.98074 19.0777 1.95037 19.079 1.91999 19.0789ZM16.726 6.80991L13.19 3.27391L15.311 1.15291C15.4039 1.05993 15.5142 0.98617 15.6355 0.935846C15.7569 0.885522 15.8871 0.859619 16.0185 0.859619C16.1499 0.859619 16.28 0.885522 16.4014 0.935846C16.5228 0.98617 16.6331 1.05993 16.726 1.15291L18.847 3.27391C18.94 3.36678 19.0137 3.47707 19.0641 3.59847C19.1144 3.71986 19.1403 3.84999 19.1403 3.98141C19.1403 4.11282 19.1144 4.24295 19.0641 4.36435C19.0137 4.48574 18.94 4.59603 18.847 4.68891L16.727 6.80891L16.726 6.80991Z" fill="white"/>
</svg>
