<svg width="8" height="15" viewBox="0 0 8 15" fill="none" xmlns="http://www.w3.org/2000/svg">
<path d="M2.77696 10.9999L2.67083 10.6771C2.2824 9.49562 2.00082 8.195 1.82958 6.77345L1.82957 6.77335C1.61074 4.95984 1.59436 3.14671 1.78044 1.33325H6.20837C6.37236 3.34395 6.35827 5.15706 6.1699 6.77507C6.01346 8.1011 5.7328 9.40949 5.33161 10.683L5.23178 10.9999H2.77696ZM5.83317 11.4999V11.3333H5.99984C6.22085 11.3333 6.43281 11.421 6.58909 11.5773C6.74537 11.7336 6.83317 11.9456 6.83317 12.1666V13.6666H1.1665V12.1666C1.1665 11.9456 1.2543 11.7336 1.41058 11.5773C1.56686 11.421 1.77882 11.3333 1.99984 11.3333H2.1665V11.4999V12.8333V13.3333H2.6665H5.33317H5.83317V12.8333V11.4999Z" stroke="white"/>
</svg>
