<svg width="12" height="17" viewBox="0 0 12 17" fill="none" xmlns="http://www.w3.org/2000/svg">
<path d="M6.65681 6.74697C6.76681 6.41697 7.23281 6.41697 7.34281 6.74697L7.98781 8.68397C8.12978 9.10977 8.36898 9.49665 8.68645 9.81394C9.00392 10.1312 9.39093 10.3702 9.81681 10.512L11.7528 11.157C12.0828 11.267 12.0828 11.733 11.7528 11.843L9.81581 12.488C9.39001 12.6299 9.00313 12.8691 8.68583 13.1866C8.36854 13.5041 8.12955 13.8911 7.98781 14.317L7.34281 16.253C7.3191 16.3252 7.27316 16.3882 7.21157 16.4328C7.14997 16.4774 7.07586 16.5014 6.99981 16.5014C6.92376 16.5014 6.84965 16.4774 6.78805 16.4328C6.72646 16.3882 6.68053 16.3252 6.65681 16.253L6.01181 14.316C5.86994 13.8903 5.63089 13.5035 5.3136 13.1862C4.99632 12.8689 4.6095 12.6298 4.18381 12.488L2.24681 11.843C2.17455 11.8193 2.11162 11.7733 2.06701 11.7117C2.0224 11.6501 1.99838 11.576 1.99838 11.5C1.99838 11.4239 2.0224 11.3498 2.06701 11.2882C2.11162 11.2266 2.17455 11.1807 2.24681 11.157L4.18381 10.512C4.6095 10.3701 4.99632 10.131 5.3136 9.81376C5.63089 9.49647 5.86994 9.10966 6.01181 8.68397L6.65681 6.74697ZM2.79381 1.64797C2.80815 1.60466 2.83577 1.56698 2.87275 1.54027C2.90973 1.51356 2.95419 1.49918 2.99981 1.49918C3.04543 1.49918 3.08989 1.51356 3.12687 1.54027C3.16385 1.56698 3.19147 1.60466 3.20581 1.64797L3.59281 2.80997C3.76581 3.32797 4.17181 3.73397 4.68981 3.90697L5.85181 4.29397C5.89512 4.30831 5.9328 4.33593 5.95951 4.37291C5.98622 4.40989 6.0006 4.45435 6.0006 4.49997C6.0006 4.54559 5.98622 4.59004 5.95951 4.62702C5.9328 4.664 5.89512 4.69163 5.85181 4.70597L4.68981 5.09297C4.43434 5.17808 4.2022 5.32153 4.01179 5.51194C3.82137 5.70235 3.67793 5.93449 3.59281 6.18997L3.20581 7.35197C3.19147 7.39527 3.16385 7.43296 3.12687 7.45967C3.08989 7.48638 3.04543 7.50075 2.99981 7.50075C2.95419 7.50075 2.90973 7.48638 2.87275 7.45967C2.83577 7.43296 2.80815 7.39527 2.79381 7.35197L2.40681 6.18997C2.32169 5.93449 2.17825 5.70235 1.98784 5.51194C1.79743 5.32153 1.56529 5.17808 1.30981 5.09297L0.147811 4.70597C0.104505 4.69163 0.0668198 4.664 0.0401098 4.62702C0.0133998 4.59004 -0.000976562 4.54559 -0.000976562 4.49997C-0.000976562 4.45435 0.0133998 4.40989 0.0401098 4.37291C0.0668198 4.33593 0.104505 4.30831 0.147811 4.29397L1.30981 3.90697C1.56529 3.82185 1.79743 3.6784 1.98784 3.48799C2.17825 3.29758 2.32169 3.06544 2.40681 2.80997L2.79381 1.64797ZM9.86281 0.598967C9.87268 0.570494 9.89118 0.545803 9.91573 0.528329C9.94029 0.510855 9.96967 0.501465 9.99981 0.501465C10.0299 0.501465 10.0593 0.510855 10.0839 0.528329C10.1084 0.545803 10.1269 0.570494 10.1368 0.598967L10.3948 1.37297C10.5098 1.71897 10.7808 1.98997 11.1268 2.10497L11.9008 2.36297C11.9293 2.37284 11.954 2.39134 11.9714 2.41589C11.9889 2.44044 11.9983 2.46983 11.9983 2.49997C11.9983 2.5301 11.9889 2.55949 11.9714 2.58404C11.954 2.6086 11.9293 2.6271 11.9008 2.63697L11.1268 2.89497C10.9563 2.95169 10.8014 3.04738 10.6743 3.17445C10.5472 3.30152 10.4515 3.45646 10.3948 3.62697L10.1368 4.40097C10.1269 4.42944 10.1084 4.45413 10.0839 4.47161C10.0593 4.48908 10.0299 4.49847 9.99981 4.49847C9.96967 4.49847 9.94029 4.48908 9.91573 4.47161C9.89118 4.45413 9.87268 4.42944 9.86281 4.40097L9.60481 3.62697C9.54809 3.45646 9.45239 3.30152 9.32533 3.17445C9.19826 3.04738 9.04332 2.95169 8.87281 2.89497L8.09981 2.63697C8.07134 2.6271 8.04665 2.6086 8.02917 2.58404C8.0117 2.55949 8.00231 2.5301 8.00231 2.49997C8.00231 2.46983 8.0117 2.44044 8.02917 2.41589C8.04665 2.39134 8.07134 2.37284 8.09981 2.36297L8.87381 2.10497C9.21981 1.98997 9.49081 1.71897 9.60581 1.37297L9.86281 0.599967V0.598967Z" fill="white"/>
</svg>
