<svg width="31" height="30" viewBox="0 0 31 30" fill="none" xmlns="http://www.w3.org/2000/svg">
<path d="M30.5 15C30.5 6.71611 23.7839 0 15.5 0C7.21611 0 0.5 6.71611 0.5 15C0.5 23.2839 7.21611 30 15.5 30C23.7839 30 30.5 23.2839 30.5 15ZM15.1647 21.5885C15.0571 21.4817 14.9715 21.3549 14.913 21.2151C14.8544 21.0753 14.824 20.9254 14.8234 20.7738C14.8228 20.6223 14.852 20.4721 14.9095 20.3319C14.9669 20.1916 15.0514 20.0641 15.1582 19.9565L18.9313 16.1538H9.29808C8.99206 16.1538 8.69857 16.0323 8.48218 15.8159C8.26579 15.5995 8.14423 15.306 8.14423 15C8.14423 14.694 8.26579 14.4005 8.48218 14.1841C8.69857 13.9677 8.99206 13.8462 9.29808 13.8462L18.9313 13.8462L15.1582 10.0435C15.0514 9.93583 14.967 9.80819 14.9096 9.66786C14.8522 9.52754 14.823 9.37728 14.8236 9.22567C14.8243 9.07406 14.8548 8.92407 14.9135 8.78425C14.9721 8.64444 15.0577 8.51755 15.1654 8.41082C15.2731 8.30409 15.4007 8.21961 15.541 8.16221C15.6814 8.10481 15.8316 8.07561 15.9832 8.07628C16.1348 8.07695 16.2848 8.10748 16.4246 8.16611C16.5645 8.22475 16.6913 8.31035 16.7981 8.41803L22.5233 14.1873C22.7378 14.4034 22.8581 14.6955 22.8581 15C22.8581 15.3045 22.7378 15.5966 22.5233 15.8127L16.7981 21.582C16.6913 21.6898 16.5644 21.7755 16.4245 21.8342C16.2845 21.8929 16.1344 21.9234 15.9827 21.924C15.831 21.9246 15.6806 21.8953 15.5403 21.8377C15.3999 21.7801 15.2723 21.6954 15.1647 21.5885Z" fill="#202020"/>
</svg>
