<svg width="31" height="30" viewBox="0 0 31 30" fill="none" xmlns="http://www.w3.org/2000/svg">
<path d="M0.5 15C0.5 23.2839 7.21611 30 15.5 30C23.7839 30 30.5 23.2839 30.5 15C30.5 6.71611 23.7839 0 15.5 0C7.21611 0 0.5 6.71611 0.5 15ZM15.8353 8.41154C15.9429 8.51826 16.0285 8.64513 16.087 8.78491C16.1456 8.92469 16.176 9.07463 16.1766 9.22618C16.1772 9.37773 16.148 9.52791 16.0905 9.66815C16.0331 9.80839 15.9486 9.93594 15.8418 10.0435L12.0687 13.8462H21.7019C22.0079 13.8462 22.3014 13.9677 22.5178 14.1841C22.7342 14.4005 22.8558 14.694 22.8558 15C22.8558 15.306 22.7342 15.5995 22.5178 15.8159C22.3014 16.0323 22.0079 16.1538 21.7019 16.1538H12.0687L15.8418 19.9565C15.9486 20.0642 16.033 20.1918 16.0904 20.3321C16.1478 20.4725 16.177 20.6227 16.1764 20.7743C16.1757 20.9259 16.1452 21.0759 16.0865 21.2157C16.0279 21.3556 15.9423 21.4825 15.8346 21.5892C15.7269 21.6959 15.5993 21.7804 15.459 21.8378C15.3186 21.8952 15.1684 21.9244 15.0168 21.9237C14.8652 21.923 14.7152 21.8925 14.5754 21.8339C14.4355 21.7753 14.3087 21.6896 14.2019 21.582L8.47668 15.8127C8.26222 15.5966 8.14187 15.3045 8.14187 15C8.14187 14.6955 8.26222 14.4034 8.47668 14.1873L14.2019 8.41803C14.3087 8.31021 14.4356 8.22451 14.5755 8.16582C14.7155 8.10713 14.8656 8.07661 15.0173 8.07601C15.169 8.07541 15.3194 8.10473 15.4597 8.16231C15.6001 8.21988 15.7277 8.30457 15.8353 8.41154Z" fill="#202020"/>
</svg>
