<svg width="17" height="17" viewBox="0 0 17 17" fill="none" xmlns="http://www.w3.org/2000/svg">
<path d="M16.7499 15.1278L16.561 14.9611C16.0251 14.4836 15.5561 13.9361 15.1666 13.3333C14.7411 12.5014 14.4861 11.5929 14.4166 10.6611V7.91664C14.4202 6.45309 13.8893 5.03857 12.9236 3.93885C11.9579 2.83912 10.6239 2.1299 9.17211 1.94442V1.22775C9.17211 1.03105 9.09397 0.842403 8.95488 0.703313C8.81579 0.564224 8.62715 0.486084 8.43045 0.486084C8.23374 0.486084 8.0451 0.564224 7.90601 0.703313C7.76692 0.842403 7.68878 1.03105 7.68878 1.22775V1.95553C6.25003 2.15438 4.9321 2.86789 3.97907 3.96392C3.02605 5.05995 2.50252 6.46422 2.50545 7.91664V10.6611C2.43587 11.5929 2.18088 12.5014 1.75545 13.3333C1.3726 13.9346 0.911111 14.4821 0.383225 14.9611L0.194336 15.1278V16.6944H16.7499V15.1278Z" fill="white"/>
</svg>
