<svg width="25" height="21" viewBox="0 0 25 21" fill="none" xmlns="http://www.w3.org/2000/svg">
<path d="M9.77279 18.6818C9.77279 19.1742 9.59287 19.6004 9.23302 19.9602C8.87317 20.3201 8.44704 20.5 7.95461 20.5C7.46219 20.5 7.03605 20.3201 6.6762 19.9602C6.31635 19.6004 6.13643 19.1742 6.13643 18.6818C6.13643 18.1894 6.31635 17.7633 6.6762 17.4034C7.03605 17.0436 7.46219 16.8636 7.95461 16.8636C8.44704 16.8636 8.87317 17.0436 9.23302 17.4034C9.59287 17.7633 9.77279 18.1894 9.77279 18.6818ZM22.5001 18.6818C22.5001 19.1742 22.3201 19.6004 21.9603 19.9602C21.6004 20.3201 21.1743 20.5 20.6819 20.5C20.1895 20.5 19.7633 20.3201 19.4035 19.9602C19.0436 19.6004 18.8637 19.1742 18.8637 18.6818C18.8637 18.1894 19.0436 17.7633 19.4035 17.4034C19.7633 17.0436 20.1895 16.8636 20.6819 16.8636C21.1743 16.8636 21.6004 17.0436 21.9603 17.4034C22.3201 17.7633 22.5001 18.1894 22.5001 18.6818ZM24.3182 3.22727V10.5C24.3182 10.7273 24.2401 10.9285 24.0839 11.1037C23.9276 11.2789 23.7359 11.3807 23.5086 11.4091L8.67904 13.142C8.80215 13.7102 8.8637 14.0417 8.8637 14.1364C8.8637 14.2879 8.75007 14.5909 8.52279 15.0455H21.591C21.8372 15.0455 22.0503 15.1354 22.2302 15.3153C22.4101 15.4953 22.5001 15.7083 22.5001 15.9545C22.5001 16.2008 22.4101 16.4138 22.2302 16.5938C22.0503 16.7737 21.8372 16.8636 21.591 16.8636H7.04552C6.79931 16.8636 6.58624 16.7737 6.40632 16.5938C6.22639 16.4138 6.13643 16.2008 6.13643 15.9545C6.13643 15.8504 6.17431 15.7012 6.25007 15.5071C6.32582 15.313 6.40158 15.1425 6.47734 14.9957C6.5531 14.849 6.6549 14.6596 6.78274 14.4276C6.91058 14.1955 6.98397 14.0559 7.00291 14.0085L4.4887 2.31818H1.59098C1.34476 2.31818 1.1317 2.22822 0.951771 2.0483C0.771847 1.86837 0.681885 1.6553 0.681885 1.40909C0.681885 1.16288 0.771847 0.949811 0.951771 0.769886C1.1317 0.589962 1.34476 0.5 1.59098 0.5H5.22734C5.37885 0.5 5.5138 0.530777 5.63217 0.59233C5.75054 0.653883 5.84287 0.727273 5.90916 0.8125C5.97545 0.897727 6.037 1.01373 6.09382 1.16051C6.15063 1.30729 6.18851 1.4304 6.20745 1.52983C6.22639 1.62926 6.25243 1.76894 6.28558 1.94886C6.31872 2.12879 6.34003 2.25189 6.3495 2.31818H23.4092C23.6554 2.31818 23.8684 2.40814 24.0484 2.58807C24.2283 2.76799 24.3182 2.98106 24.3182 3.22727Z" fill="white"/>
</svg>
