<svg width="18" height="18" viewBox="0 0 18 18" fill="none" xmlns="http://www.w3.org/2000/svg">
<path d="M11.645 5.51613C11.1479 2.2754 9.97548 0 8.61109 0C7.2467 0 6.07429 2.2754 5.57721 5.51613H11.645ZM5.3201 9C5.3201 9.80564 5.36124 10.5786 5.43323 11.3226H11.7855C11.8575 10.5786 11.8986 9.80564 11.8986 9C11.8986 8.19435 11.8575 7.42137 11.7855 6.67742H5.43323C5.36124 7.42137 5.3201 8.19435 5.3201 9ZM16.4512 5.51613C15.4707 3.05202 13.4859 1.14677 11.0348 0.377419C11.8712 1.60403 12.4471 3.45121 12.7488 5.51613H16.4512ZM6.18399 0.377419C3.73632 1.14677 1.74801 3.05202 0.771 5.51613H4.47336C4.77161 3.45121 5.34753 1.60403 6.18399 0.377419V0.377419ZM16.818 6.67742H12.8859C12.9579 7.43952 12.9991 8.21976 12.9991 9C12.9991 9.78024 12.9579 10.5605 12.8859 11.3226H16.8146C17.0031 10.5786 17.1094 9.80564 17.1094 9C17.1094 8.19435 17.0031 7.42137 16.818 6.67742ZM4.22311 9C4.22311 8.21976 4.26425 7.43952 4.33624 6.67742H0.404193C0.219075 7.42137 0.109375 8.19435 0.109375 9C0.109375 9.80564 0.219075 10.5786 0.404193 11.3226H4.33281C4.26424 10.5605 4.22311 9.78024 4.22311 9V9ZM5.57721 12.4839C6.07429 15.7246 7.2467 18 8.61109 18C9.97548 18 11.1479 15.7246 11.645 12.4839H5.57721ZM11.0382 17.6226C13.4859 16.8532 15.4742 14.948 16.4546 12.4839H12.7522C12.4506 14.5488 11.8746 16.396 11.0382 17.6226ZM0.771 12.4839C1.75144 14.948 3.73632 16.8532 6.18741 17.6226C5.35096 16.396 4.77503 14.5488 4.47336 12.4839H0.771V12.4839Z" fill="#B6B4B4"/>
</svg>
