<svg width="20" height="19" viewBox="0 0 20 19" fill="none" xmlns="http://www.w3.org/2000/svg">
<path d="M20 12.814V15.4652C20 15.5848 19.9647 15.6884 19.894 15.7758C19.8233 15.8633 19.7396 15.907 19.6429 15.907H4.28571V18.5582C4.28571 18.6778 4.25037 18.7814 4.17969 18.8689C4.109 18.9563 4.0253 19 3.92857 19C3.83929 19 3.75 18.954 3.66071 18.862L0.100446 14.4433C0.0334821 14.3605 0 14.2592 0 14.1396C0 14.0107 0.0334821 13.9048 0.100446 13.822L3.67188 9.40338C3.73884 9.32053 3.8244 9.2791 3.92857 9.2791C4.0253 9.2791 4.109 9.32283 4.17969 9.41028C4.25037 9.49773 4.28571 9.60129 4.28571 9.72096V12.3721H19.6429C19.7396 12.3721 19.8233 12.4159 19.894 12.5033C19.9647 12.5908 20 12.6943 20 12.814ZM20 5.30236C20 5.43124 19.9665 5.5371 19.8996 5.61995L16.3281 10.0386C16.2612 10.1214 16.1756 10.1628 16.0714 10.1628C15.9747 10.1628 15.891 10.1191 15.8203 10.0316C15.7496 9.9442 15.7143 9.84064 15.7143 9.72096V7.0698H0.357143C0.260417 7.0698 0.176711 7.02608 0.106027 6.93862C0.0353423 6.85117 0 6.74761 0 6.62794V3.97678C0 3.85711 0.0353423 3.75355 0.106027 3.6661C0.176711 3.57864 0.260417 3.53492 0.357143 3.53492H15.7143V0.883755C15.7143 0.754879 15.7478 0.649017 15.8147 0.566168C15.8817 0.483319 15.9673 0.441895 16.0714 0.441895C16.1607 0.441895 16.25 0.487922 16.3393 0.579976L19.8996 4.98477C19.9665 5.06762 20 5.17348 20 5.30236Z" fill="#BCB7B7"/>
</svg>
