<svg width="44" height="51" viewBox="0 0 44 51" fill="none" xmlns="http://www.w3.org/2000/svg">
<path d="M3.99739 0C1.07235 0 0 1.07892 0 3.99215V39.1852C0 39.5183 0.0175533 39.8243 0.0430855 40.108C0.118086 40.7471 0.118086 41.3702 0.714902 42.0666C0.77235 42.1495 1.37236 42.5893 1.37236 42.5893C1.6963 42.7471 1.9197 42.8635 2.28513 43.0117L20.022 50.4318C20.9364 50.8478 21.329 51.0231 21.9928 50.9976H22.0008C22.6726 51.0231 23.0652 50.8493 23.9795 50.4318L41.7069 43.0117C42.0819 42.8635 42.2957 42.7455 42.6276 42.5893C42.6276 42.5893 43.2276 42.132 43.2851 42.0666C43.8835 41.3702 43.8835 40.7471 43.9569 40.108C43.9824 39.8259 44 39.5199 44 39.1948V3.99375C44 1.08051 42.9197 0.00159367 40.0026 0.00159367L3.99739 0ZM32.4148 6.60578H33.8589C36.2701 6.60578 37.451 7.77713 37.451 10.2186V14.2108H34.5259V10.3748C34.5259 9.59551 34.1685 9.23853 33.4105 9.23853H32.9126C32.1323 9.23853 31.7748 9.59551 31.7748 10.3748V22.7242C31.7748 23.5035 32.1323 23.8605 32.9126 23.8605H33.4696C34.2164 23.8605 34.5738 23.5035 34.5738 22.7242V18.3081H37.4989V22.866C37.4989 25.2964 36.3036 26.4932 33.8844 26.4932H32.4148C29.9876 26.4932 28.7972 25.2884 28.7972 22.866V10.2394C28.7972 7.809 29.986 6.60418 32.4148 6.60418V6.60578ZM6.48199 6.77471H13.106V9.48873H9.4565V15.0156H12.9736V17.7232H9.4565V23.6151H13.1571V26.3307H6.48199V6.77471ZM14.6012 6.77471H19.2736C21.6912 6.77471 22.888 7.97793 22.888 10.4083V15.6053C22.888 18.0356 21.6896 19.2325 19.2736 19.2325H17.5869V26.3291H14.6012V6.77471ZM24.2349 6.77471H27.2094V26.3307H24.2349V6.77471ZM17.5773 9.40427V16.6077H18.8077C19.5561 16.6077 19.9135 16.2443 19.9135 15.4618V10.5485C19.9135 9.76922 19.5561 9.40268 18.8077 9.40268L17.5773 9.40427ZM9.37352 30.9762H9.81395L9.91448 30.9938H10.0741L10.157 31.0193H10.24L10.315 31.0432L10.398 31.0607L10.4634 31.0782L10.6118 31.1117L10.6964 31.1356L10.7539 31.1531L10.8193 31.1786L10.9023 31.2041L10.9597 31.228L11.0443 31.2615L11.1193 31.295L11.1847 31.3348L11.2597 31.3683L11.3172 31.4081L11.4017 31.4512L11.4672 31.491L11.5326 31.5245L11.598 31.5739L11.6666 31.6169L11.7241 31.6663L11.9235 31.8177L11.8725 31.883L11.815 31.9404L11.764 31.9994L11.7065 32.0647L11.6666 32.1221L11.6156 32.1811L11.5581 32.2384L11.5071 32.3038L11.4672 32.3611L11.4081 32.4297L11.3586 32.487L11.3012 32.5524L11.2501 32.6113L11.2102 32.6767L11.1512 32.7341L11.1017 32.8026L11.0443 32.86L10.9932 32.9173L10.9358 32.8775L10.8703 32.8185L10.8017 32.7787L10.6789 32.6958L10.6039 32.6528L10.5352 32.6129L10.4602 32.5699L10.4028 32.5364L10.3374 32.5046L10.2033 32.4536L10.1203 32.4392L10.0549 32.4217L9.97991 32.4042L9.89533 32.3866L9.81235 32.3787H9.72937L9.63203 32.3611H9.47245L9.38947 32.3691H9.30649L9.22352 32.3946L9.15809 32.4121L9.08309 32.4376L9.00809 32.452L8.93947 32.4854L8.85649 32.5189L8.74159 32.6018L8.67298 32.6416L8.61553 32.6926L8.55808 32.7325L8.49904 32.7835L8.45914 32.8408L8.39053 32.8982L8.30755 33.0145L8.26765 33.0799L8.23414 33.1548L8.19425 33.2138L8.15116 33.2887L8.12563 33.3636L8.09371 33.4289L8.06818 33.5118L8.0602 33.5946L8.03627 33.6711L8.01871 33.754V33.8369L8.01074 33.9198V34.111L8.01871 34.1939V34.2592L8.02669 34.3421L8.04105 34.417L8.06659 34.4823L8.07457 34.5668L8.1001 34.6321L8.12403 34.6895L8.15755 34.7724L8.20063 34.8552L8.23255 34.9142L8.31553 35.0465L8.36659 35.1118L8.40648 35.1708L8.4751 35.2202L8.515 35.2776L8.57244 35.3286L8.70649 35.429L8.76394 35.4608L8.82936 35.5039L8.90596 35.5373L8.98894 35.5692L9.04638 35.6027L9.21235 35.6521L9.28735 35.66L9.37033 35.6855L9.45331 35.6935H9.81076L9.91129 35.6855H9.98629L10.0709 35.6521L10.1538 35.6441L10.2368 35.6202L10.3023 35.6027L10.3773 35.5692L10.4427 35.5373L10.5177 35.5039L10.5687 35.4704L10.6342 35.4306V34.6911H9.46128V33.5054H12.1118V36.1621L12.0544 36.2019L11.997 36.2513L11.9379 36.2943L11.8725 36.3437L11.8071 36.3772L11.7496 36.4282L11.6156 36.5111L11.5326 36.5509L11.4001 36.6338L11.3156 36.6672L11.2501 36.6991L11.1751 36.7326L11.0092 36.7979L10.9437 36.8314L10.7922 36.8808L10.7172 36.8983L10.6422 36.9238L10.5592 36.9493L10.4937 36.9637L10.2448 37.0147L10.1682 37.0226L10.0022 37.0402L9.91129 37.0481L9.82831 37.0545L9.73735 37.0625H9.32245L9.23947 37.0481H9.15649L9.07351 37.0306H8.99851L8.91553 37.0051L8.67298 36.9557L8.60755 36.9302L8.53255 36.9222L8.44957 36.8888L8.29797 36.8394L8.14957 36.774L8.06659 36.7406L8.00914 36.7071L7.92616 36.6752L7.86712 36.6242L7.78414 36.5923L7.73467 36.5493L7.66924 36.5095L7.5352 36.4091L7.46977 36.366L7.41871 36.3166L7.35328 36.2656L7.24477 36.1589L7.18732 36.1079L7.13785 36.0505L7.07881 35.9915L7.03892 35.9262L6.98785 35.8768L6.94796 35.8083L6.89689 35.7429L6.857 35.6855L6.81391 35.6202L6.77402 35.5437L6.74051 35.4784L6.707 35.4035L6.67508 35.3381L6.60965 35.1867L6.58412 35.1294L6.55061 35.0545L6.53306 34.9795L6.5187 34.9142L6.50114 34.8313L6.47561 34.7548L6.45806 34.672L6.45008 34.6066L6.43572 34.5238L6.41816 34.3755L6.40061 34.2098V33.77L6.41816 33.6855V33.6026L6.4437 33.5197V33.4369L6.46763 33.362L6.49316 33.2791L6.52667 33.1309L6.55061 33.048L6.57614 32.9731L6.67668 32.7484L6.70859 32.6831L6.7421 32.6082L6.78519 32.5317L6.8171 32.4663L6.86019 32.409L6.94317 32.2751L6.99264 32.2097L7.0437 32.1524L7.0836 32.087L7.19211 31.9787L7.24158 31.9197L7.30062 31.8623L7.35009 31.8049L7.41871 31.754L7.5336 31.6535L7.59903 31.6041L7.66765 31.5611L7.72509 31.5117L7.79052 31.4687L7.85914 31.4368L7.93414 31.3938L8.01712 31.3539L8.07457 31.3109L8.15755 31.279L8.23255 31.2456L8.30755 31.2057L8.37616 31.1882L8.45914 31.1627L8.52457 31.1292L8.59957 31.1149L8.67457 31.0894L8.75755 31.0719L8.82617 31.0464L8.90915 31.0288H8.99213L9.06713 31.0049H9.15011L9.23309 30.9874H9.30809L9.37352 30.9762ZM34.8818 30.9938H35.3222L35.4228 31.0113H35.5807L35.6637 31.0352H35.7547L35.8377 31.0607L35.9861 31.0942L36.069 31.1117L36.1441 31.126L36.2286 31.1515L36.3036 31.177L36.3691 31.1946L36.4441 31.2185L36.527 31.244L36.5925 31.2774L36.6754 31.3093L36.752 31.3428L36.827 31.3858L36.8845 31.4177L36.9595 31.4607L37.0345 31.4926L37.1031 31.5356L37.1781 31.585L37.2356 31.6281L37.3696 31.7285L37.435 31.7683L37.384 31.8336L37.3441 31.9022L37.2946 31.9595L37.2435 32.0249L37.2036 32.0998L37.1606 32.1683L37.1111 32.2257L37.06 32.291L37.0201 32.3595L36.9691 32.4249L36.9292 32.4823L36.8781 32.5476L36.8382 32.6241L36.7871 32.6894L36.7377 32.7468L36.6866 32.8122L36.6467 32.8807L36.5813 32.8297L36.5047 32.7898L36.4472 32.7468L36.3818 32.707L36.3068 32.6735L36.2382 32.6305L36.1632 32.5986L36.1058 32.5651L36.0228 32.5333L35.9637 32.4998L35.8983 32.4743L35.7499 32.4249L35.5839 32.3739L35.335 32.3245L35.252 32.3165L35.1004 32.299H34.9265L34.8355 32.3165L34.7525 32.334L34.6775 32.3516L34.6121 32.3835L34.5531 32.4169L34.4876 32.4743L34.4382 32.5492L34.4047 32.6257V32.8233L34.4478 32.9141L34.4797 32.9651L34.5307 33.0145L34.6137 33.0576L34.6791 33.0974L34.7541 33.1309L34.8371 33.1628L34.9456 33.1883L35.0031 33.2138L35.0717 33.2313L35.1547 33.2488L35.2201 33.2727L35.2951 33.2903L35.3861 33.3158L35.469 33.3412L35.56 33.3652L35.651 33.3827L35.726 33.4082L35.8169 33.4321L35.8999 33.4496L35.9749 33.4672L36.2254 33.5421L36.2909 33.5676L36.3738 33.5931L36.4488 33.6249L36.5318 33.668L36.6978 33.7333L36.7728 33.7763L36.9068 33.8592L37.0297 33.95L37.1063 33.9994L37.1637 34.0568L37.2212 34.1253L37.2802 34.1827L37.3201 34.2401L37.3792 34.323L37.4191 34.3819L37.4526 34.4648L37.4845 34.5142L37.51 34.5971L37.5356 34.6656L37.5531 34.7405L37.585 34.9062L37.593 34.9891L37.601 35.064V35.2632L37.593 35.3541L37.5755 35.5198L37.5579 35.6027L37.534 35.6776L37.5164 35.7604L37.4909 35.8433L37.4669 35.9182L37.4334 35.9772L37.3999 36.0521L37.36 36.1174L37.309 36.1764L37.226 36.3087L37.1254 36.425L37.068 36.4649L37.0026 36.5238L36.9515 36.5732L36.8861 36.6226L36.8207 36.6561L36.7552 36.7071L36.6786 36.7469L36.5302 36.8218L36.4472 36.8553L36.3722 36.8872L36.2893 36.9127L36.2143 36.9382L36.1456 36.9557L35.9797 36.9876L35.9222 37.0051L35.8393 37.0226H35.7563L35.6813 37.0402H35.5983L35.5153 37.0577H34.9233L34.6744 37.0322L34.5914 37.0147L34.5164 37.0067L34.3504 36.9748L34.2595 36.9573L34.1845 36.9398L34.1015 36.9143L34.0169 36.8967L33.9419 36.8728L33.8589 36.8473L33.7759 36.8139L33.7105 36.79L33.6275 36.7645L33.5446 36.731L33.4855 36.6991L33.4025 36.6736L33.3371 36.6306L33.2541 36.5987L33.1887 36.5557L33.1297 36.5159L33.0467 36.4728L32.9892 36.4409L32.9238 36.3899L32.8584 36.3501L32.7898 36.2991L32.7323 36.2497L32.6669 36.1987L32.6078 36.1589L32.5424 36.0999L32.5935 36.0346L32.6509 35.9772L32.7004 35.9182L32.7594 35.8529L32.7993 35.7955L32.8504 35.7302L32.9078 35.6712L32.9573 35.6138L33.0164 35.5485L33.0563 35.4895L33.1153 35.4321L33.1648 35.3668L33.2158 35.3078L33.2733 35.2425L33.3132 35.1851L33.3722 35.1262L33.4297 35.0608L33.4871 35.1118L33.5637 35.1612L33.6212 35.2106L33.7041 35.2537L33.7616 35.2967L33.8366 35.3461L33.9052 35.3891L33.9802 35.421L34.0376 35.464L34.1126 35.4879L34.1956 35.5214L34.2642 35.5549L34.3392 35.5788L34.4047 35.6122L34.4876 35.6377L34.5626 35.6616L34.6456 35.6871L34.7286 35.6951L34.8052 35.7206L34.8882 35.7286H34.9791L35.0541 35.7525H35.5026L35.5776 35.7381L35.6605 35.7206L35.718 35.7126L35.7866 35.6871L35.844 35.6553L35.919 35.6043L35.9621 35.5469L35.994 35.4816L36.0196 35.4051V35.2138L35.9861 35.1389L35.9462 35.0736L35.8951 35.0242L35.8201 34.9732L35.7627 34.9493L35.6877 34.9158L35.6047 34.8823L35.5137 34.8425L35.4547 34.825L35.3893 34.8074L35.3063 34.7819L35.2488 34.7676L35.1658 34.7421L35.0829 34.7341L34.9983 34.7007L34.9153 34.6927L34.8244 34.6688L34.7494 34.6512L34.6664 34.6258L34.5834 34.6082L34.5004 34.5843L34.4254 34.5588L34.3424 34.5413L34.277 34.5158L34.1254 34.4664L34.0424 34.4329L33.9595 34.409L33.7935 34.3405L33.7185 34.3006L33.6355 34.2576L33.5781 34.2178L33.5015 34.1747L33.444 34.1349L33.369 34.0919L33.2605 33.9835L33.2031 33.9341L33.1025 33.8178L33.0594 33.7604L33.0275 33.703L32.9765 33.6265L32.9525 33.5691L32.8759 33.3699L32.8616 33.2871L32.844 33.2122V33.1373L32.8265 33.0544V32.7149L32.844 32.5492L32.8616 32.4807L32.8759 32.4058L32.9015 32.3404L32.919 32.2575L32.9525 32.2002L32.9844 32.1157L33.018 32.0504L33.0499 31.9675L33.0929 31.9101L33.1504 31.8448L33.1935 31.7763L33.2589 31.7189L33.3084 31.6615L33.3594 31.593L33.4344 31.5356L33.4855 31.4926L33.5509 31.4432L33.6834 31.3603L33.7584 31.3173L33.91 31.2424L33.9754 31.2185L34.0504 31.193L34.1334 31.1595L34.2164 31.1356L34.2754 31.1181L34.3504 31.1005L34.4158 31.083L34.4908 31.0655L34.5738 31.048L34.7398 31.0336L34.8164 31.0256L34.8818 30.9938ZM15.2252 31.0511H16.73L16.7986 31.2025L16.8305 31.2679L16.8561 31.3508L16.8896 31.4257L16.9135 31.491L16.9566 31.5659L17.0061 31.7173L17.0491 31.7922L17.1146 31.9404L17.1321 32.0058L17.2646 32.3054L17.2901 32.3803L17.3236 32.4488L17.3635 32.5237L17.3811 32.5986L17.4241 32.6815L17.4385 32.7564L17.5151 32.9046L17.547 32.9636L17.5805 33.0464L17.6061 33.1293L17.63 33.1867L17.6731 33.2695L17.6986 33.3381L17.7305 33.4209L17.7561 33.4783L17.7896 33.5612L17.8646 33.7094L17.8885 33.7843L17.9061 33.8608L17.9396 33.9357L17.9795 34.001L18.013 34.0839L18.0465 34.1588L18.0704 34.2241L18.139 34.3755L18.163 34.4504L18.1965 34.5253L18.222 34.6003L18.2539 34.6656L18.297 34.7421L18.3289 34.817L18.3625 34.8823L18.38 34.9652L18.4454 35.1134L18.4789 35.1819L18.5029 35.2568L18.5715 35.4051L18.6114 35.4879L18.6289 35.5533L18.672 35.6377L18.6864 35.6951L18.7199 35.778L18.763 35.8609L18.7949 35.9182L18.8204 36.0011L18.854 36.0696L18.8779 36.1525L18.921 36.2099L18.9704 36.3756L19.004 36.4346L19.0359 36.5174L19.079 36.5828L19.1125 36.6657L19.1268 36.7406L19.1524 36.8059L19.1859 36.8808L19.2258 36.9493H17.5646L17.5247 36.8808L17.4991 36.8059L17.4656 36.731L17.4337 36.6481L17.4162 36.5828L17.3475 36.4346L17.3236 36.366L17.2582 36.2178L17.2327 36.1525L17.1991 36.0696L17.1497 35.9182L17.1162 35.8529H14.8055L14.7736 35.9278L14.7481 35.9963L14.7145 36.0792L14.6826 36.1541L14.6651 36.2194L14.6316 36.3023L14.5996 36.3676L14.5741 36.4425L14.5406 36.5111L14.5087 36.5939L14.4832 36.6513L14.4496 36.7342L14.4257 36.8171L14.3922 36.876L14.3667 36.9589H12.7214L12.7454 36.8824L12.814 36.7342L12.8379 36.6513L12.8635 36.586L12.9065 36.5111L12.9385 36.4362L12.972 36.3676L12.9895 36.2927L13.0214 36.2099L13.0645 36.1445L13.0964 36.0696L13.1475 35.9182L13.2225 35.77L13.248 35.6951L13.2799 35.6298L13.3055 35.5533L13.406 35.3302L13.4395 35.2473L13.4635 35.1819L13.489 35.107L13.5321 35.0385L13.564 34.9556L13.5895 34.8807L13.6151 34.8154L13.647 34.7325L13.6901 34.6736L13.7156 34.5907L13.7475 34.5253L13.773 34.4504L13.8066 34.3676L13.8464 34.3022L13.872 34.2194L13.9039 34.1604L13.9294 34.0775L13.9629 33.9947L13.9949 33.9373L14.0284 33.8544L14.0539 33.7859L14.0858 33.703L14.1113 33.6456L14.1544 33.5628L14.1863 33.4799L14.2199 33.4146L14.2374 33.3397L14.2693 33.2632L14.3124 33.1883L14.3443 33.1229L14.3619 33.04L14.3954 32.9651L14.4289 32.8966L14.4943 32.7484L14.5183 32.6831L14.5869 32.5173L14.6188 32.4584L14.6523 32.3755L14.6778 32.3101L14.7018 32.2273L14.7353 32.1524L14.7784 32.087L14.8103 32.0042L14.8358 31.9452L14.8614 31.8623L14.8933 31.797L14.9364 31.7221L14.9619 31.6392L14.9858 31.5707L15.0193 31.4878L15.0512 31.4304L15.0943 31.3476L15.1199 31.2647L15.1438 31.2073L15.1773 31.1245L15.2252 31.0511ZM19.8976 31.0942H21.5428L21.5939 31.1595L21.6769 31.2934L21.7168 31.3683L21.7598 31.4257L21.7997 31.5006L21.8428 31.5659L21.8827 31.6424L21.9258 31.7077L21.9657 31.7651L22.0088 31.84L22.0487 31.9085L22.1077 31.9739L22.1317 32.0392L22.1827 32.1141L22.2226 32.1827L22.2737 32.24L22.3072 32.3149L22.3471 32.3803L22.3981 32.4488L22.4221 32.5141L22.4811 32.589L22.604 32.7882L22.6375 32.8536L22.687 32.9189L22.7301 32.9843L22.77 33.0608L22.896 33.2584L22.9359 33.3349L22.979 33.4002L23.0285 33.3349L23.062 33.2504L23.1115 33.193L23.1545 33.1181L23.1944 33.0608L23.2279 32.9779L23.2854 32.9189L23.3285 32.844L23.362 32.7867L23.4019 32.7181L23.4529 32.6432L23.4928 32.5858L23.5359 32.503L23.5758 32.4456L23.6269 32.3691L23.6588 32.3117L23.7019 32.2289L23.7418 32.1795L23.7849 32.1109L23.8343 32.0281L23.8774 31.9707L23.9093 31.8958L23.9604 31.8368L24.0003 31.754L24.0434 31.7045L24.0928 31.6392L24.1359 31.5563L24.1758 31.4974L24.2189 31.4225L24.2588 31.3651L24.3019 31.2822L24.3514 31.2233L24.3849 31.1484L24.428 31.091H26.0987V37.0179H24.5349V33.5309L24.495 33.5899L24.4439 33.6727L24.404 33.7221L24.353 33.7875L24.321 33.8703L24.27 33.9293L24.2301 33.9867L24.179 34.0696L24.096 34.1859L24.0466 34.2512L24.0035 34.3341L23.954 34.3931L23.9109 34.4504L23.879 34.5333L23.8279 34.5907L23.7881 34.6497L23.737 34.7325L23.6971 34.7899L23.646 34.8552L23.6061 34.9301L23.5726 34.9891L23.5232 35.0545L23.4801 35.1294L23.4306 35.1867L23.3795 35.2553L23.3476 35.3206L23.3045 35.3955L23.2551 35.4545L23.204 35.5198L23.1721 35.6027L23.113 35.6521L23.0811 35.7174L23.0301 35.8019L22.9902 35.8593H22.9567L22.9072 35.7844L22.8641 35.7158L22.8242 35.6409L22.7811 35.5835L22.7317 35.5086L22.6886 35.4433L22.6391 35.3748L22.596 35.3094L22.5561 35.2345L22.513 35.1772L22.4556 35.1007L22.4221 35.0353L22.3726 34.9604L22.3295 34.903L22.2896 34.8281L22.2386 34.7596L22.1987 34.6768L22.1476 34.6194L22.1077 34.5445L22.0646 34.4759L22.0247 34.401L21.9737 34.3437L21.9338 34.2688L21.8827 34.2034L21.8508 34.1349L21.7997 34.0696L21.7598 33.9947L21.7088 33.9373L21.6689 33.8608L21.6178 33.7954L21.5859 33.7205L21.5269 33.6632L21.4949 33.5867L21.4439 33.5213V37.0163H19.9072V31.1468L19.8976 31.0942ZM27.2764 31.0942H31.9568V32.4313H28.8307V33.3859H31.6392V34.6481H28.8307V35.66H31.9967V37.0051H27.2844V31.1452L27.2764 31.0942ZM15.956 32.911L15.9305 32.9859L15.9066 33.0544L15.8731 33.1373L15.8396 33.2122L15.8156 33.2871L15.747 33.4353L15.7151 33.5181L15.6896 33.5867L15.664 33.6695L15.6321 33.7269L15.6066 33.8098L15.5731 33.8927L15.5411 33.9516L15.5156 34.0345L15.4837 34.0998L15.4582 34.1827L15.4151 34.2576L15.3975 34.323L15.3656 34.4058L15.3321 34.4823L15.3066 34.5477L15.2747 34.6305H16.6454L16.6135 34.5477L16.588 34.4728L16.5225 34.3214L16.497 34.2465L16.4635 34.1811L16.4396 34.0982L16.406 34.0233L16.3805 33.9484L16.3486 33.8799L16.3231 33.805L16.2896 33.7221L16.2656 33.6568L16.197 33.5086L16.1826 33.4321L16.1491 33.3572L16.1156 33.2743L16.0917 33.2169L16.0231 33.0512L15.9991 32.9763L15.956 32.911ZM13.5145 44.0093H30.5589L21.8588 46.8731L13.5145 44.0093Z" fill="white"/>
</svg>
