<svg width="21" height="15" viewBox="0 0 21 15" fill="none" xmlns="http://www.w3.org/2000/svg">
<path d="M9.25 15C9.25 15 8 15 8 13.75C8 12.5 9.25 8.75 14.25 8.75C19.25 8.75 20.5 12.5 20.5 13.75C20.5 15 19.25 15 19.25 15H9.25ZM14.25 7.5C15.2446 7.5 16.1984 7.10491 16.9017 6.40165C17.6049 5.69839 18 4.74456 18 3.75C18 2.75544 17.6049 1.80161 16.9017 1.09835C16.1984 0.395088 15.2446 0 14.25 0C13.2554 0 12.3016 0.395088 11.5983 1.09835C10.8951 1.80161 10.5 2.75544 10.5 3.75C10.5 4.74456 10.8951 5.69839 11.5983 6.40165C12.3016 7.10491 13.2554 7.5 14.25 7.5Z" fill="white"/>
<path fill-rule="evenodd" clip-rule="evenodd" d="M7.02 15C6.83469 14.6098 6.74228 14.182 6.75 13.75C6.75 12.0563 7.6 10.3125 9.17 9.10005C8.38636 8.85859 7.56994 8.74051 6.75 8.75005C1.75 8.75005 0.5 12.5 0.5 13.75C0.5 15 1.75 15 1.75 15H7.02Z" fill="white"/>
<path d="M6.125 7.5C6.9538 7.5 7.74866 7.17076 8.33471 6.58471C8.92076 5.99866 9.25 5.2038 9.25 4.375C9.25 3.5462 8.92076 2.75134 8.33471 2.16529C7.74866 1.57924 6.9538 1.25 6.125 1.25C5.2962 1.25 4.50134 1.57924 3.91529 2.16529C3.32924 2.75134 3 3.5462 3 4.375C3 5.2038 3.32924 5.99866 3.91529 6.58471C4.50134 7.17076 5.2962 7.5 6.125 7.5Z" fill="white"/>
</svg>
