<svg width="20" height="22" viewBox="0 0 20 22" fill="none" xmlns="http://www.w3.org/2000/svg">
<path d="M17 7H3C1.89543 7 1 7.89543 1 9V19C1 20.1046 1.89543 21 3 21H17C18.1046 21 19 20.1046 19 19V9C19 7.89543 18.1046 7 17 7Z" stroke="white" stroke-width="2" stroke-linecap="round" stroke-linejoin="round"/>
<path d="M10 4C10 3.40666 9.82405 2.82664 9.49441 2.33329C9.16476 1.83994 8.69623 1.45543 8.14805 1.22836C7.59987 1.0013 6.99667 0.94189 6.41473 1.05765C5.83279 1.1734 5.29824 1.45912 4.87868 1.87868C4.45912 2.29824 4.1734 2.83279 4.05764 3.41473C3.94189 3.99667 4.0013 4.59987 4.22836 5.14805C4.45542 5.69623 4.83994 6.16477 5.33329 6.49441C5.82664 6.82405 6.40666 7 7 7M13 7C13.5933 7 14.1734 6.82405 14.6667 6.49441C15.1601 6.16477 15.5446 5.69623 15.7716 5.14805C15.9987 4.59987 16.0581 3.99667 15.9424 3.41473C15.8266 2.83279 15.5409 2.29824 15.1213 1.87868C14.7018 1.45912 14.1672 1.1734 13.5853 1.05765C13.0033 0.94189 12.4001 1.0013 11.8519 1.22836C11.3038 1.45543 10.8352 1.83994 10.5056 2.33329C10.1759 2.82664 10 3.40666 10 4M10 4V21M19 14H1" stroke="white" stroke-width="2" stroke-linecap="round" stroke-linejoin="round"/>
</svg>
