<svg width="8" height="15" viewBox="0 0 8 15" fill="none" xmlns="http://www.w3.org/2000/svg">
<path d="M1.67008 0.499969C1.81948 0.499461 1.96709 0.532433 2.10206 0.596461C2.23704 0.66049 2.35596 0.753949 2.45008 0.869969L7.28008 6.86997C7.42716 7.0489 7.50757 7.27334 7.50757 7.50497C7.50757 7.73659 7.42716 7.96104 7.28008 8.13997L2.28008 14.14C2.11034 14.3442 1.86643 14.4726 1.602 14.497C1.33758 14.5214 1.0743 14.4397 0.87008 14.27C0.665864 14.1002 0.53744 13.8563 0.51306 13.5919C0.48868 13.3275 0.570342 13.0642 0.74008 12.86L5.21008 7.49997L0.890081 2.13997C0.767798 1.99318 0.690121 1.81444 0.666241 1.62489C0.642362 1.43535 0.673279 1.24292 0.755334 1.07039C0.83739 0.897866 0.96715 0.752455 1.12926 0.651364C1.29137 0.550274 1.47905 0.497737 1.67008 0.499969Z" fill="white"/>
</svg>
