<svg width="21" height="19" viewBox="0 0 21 19" fill="none" xmlns="http://www.w3.org/2000/svg">
<path d="M19.0938 0.90625H1.90625C1.49185 0.90625 1.09442 1.07087 0.801396 1.3639C0.50837 1.65692 0.34375 2.05435 0.34375 2.46875V16.5312C0.34375 16.9457 0.50837 17.3431 0.801396 17.6361C1.09442 17.9291 1.49185 18.0938 1.90625 18.0938H19.0938C19.5082 18.0938 19.9056 17.9291 20.1986 17.6361C20.4916 17.3431 20.6562 16.9457 20.6562 16.5312V2.46875C20.6562 2.05435 20.4916 1.65692 20.1986 1.3639C19.9056 1.07087 19.5082 0.90625 19.0938 0.90625ZM10.5 10.2812C9.2568 10.2812 8.06451 9.78739 7.18544 8.90831C6.30636 8.02924 5.8125 6.83695 5.8125 5.59375C5.8125 5.38655 5.89481 5.18784 6.04132 5.04132C6.18784 4.89481 6.38655 4.8125 6.59375 4.8125C6.80095 4.8125 6.99966 4.89481 7.14618 5.04132C7.29269 5.18784 7.375 5.38655 7.375 5.59375C7.375 6.42255 7.70424 7.21741 8.29029 7.80346C8.87634 8.38951 9.6712 8.71875 10.5 8.71875C11.3288 8.71875 12.1237 8.38951 12.7097 7.80346C13.2958 7.21741 13.625 6.42255 13.625 5.59375C13.625 5.38655 13.7073 5.18784 13.8538 5.04132C14.0003 4.89481 14.199 4.8125 14.4062 4.8125C14.6135 4.8125 14.8122 4.89481 14.9587 5.04132C15.1052 5.18784 15.1875 5.38655 15.1875 5.59375C15.1875 6.83695 14.6936 8.02924 13.8146 8.90831C12.9355 9.78739 11.7432 10.2812 10.5 10.2812Z" fill="white"/>
</svg>
