<svg width="19" height="17" viewBox="0 0 19 17" fill="none" xmlns="http://www.w3.org/2000/svg">
<path d="M11.805 12.3605V5.42292C11.805 3.8979 10.9729 3.36098 10.9729 3.36098C10.9729 3.36098 11.9985 3.29653 12.4242 3.81203C14.0302 1.66411 17.2423 0.676137 17.2423 0.676137L15.017 4.00531V12.3606C15.8297 13.907 17.8614 11.6733 18.5 10.7497C18.1324 11.9095 16.4489 14.8521 13.8754 16.506L12.1532 14.8521L10.257 17C8.25542 16.7176 6.07749 16.1194 4.31666 14.0145C5.16785 14.2915 5.58964 13.9451 5.58964 13.456V6.49504C5.32791 4.7379 3.46932 6.18509 2.16883 7.84998C1.08612 9.23606 0.500354 10.7441 0.522656 10.9479C0.100361 6.59551 5.68015 0.93741 9.028 0C6.81277 1.70702 7.69316 4.28451 8.67996 3.8979V12.5968C9.70237 14.1213 10.7517 13.4021 11.805 12.3605Z" fill="#B6B4B4"/>
</svg>
